<?xml version="1.0" encoding="utf-8"?>
<!-- Generator: Adobe Illustrator 19.2.1, SVG Export Plug-In . SVG Version: 6.00 Build 0)  -->
<svg version="1.1" xmlns="http://www.w3.org/2000/svg" xmlns:xlink="http://www.w3.org/1999/xlink" x="0px" y="0px"
	 viewBox="0 0 1400 980" style="enable-background:new 0 0 1400 980;" xml:space="preserve">
<style type="text/css">
	.st0{fill:#B9E5FB;}
	.st1{fill:#4FAA13;stroke:#000000;stroke-miterlimit:10;}
	.st2{fill:#4B5F6A;}
	.st3{fill:none;stroke:#FFFFFF;stroke-width:7.856;stroke-miterlimit:10;}
	.st4{fill:#B8BABC;stroke:#000000;stroke-miterlimit:10;}
	.st5{fill:#231F20;stroke:#000000;stroke-miterlimit:10;}
	.st6{clip-path:url(#SVGID_2_);}
	.st7{fill:none;stroke:#000000;stroke-width:15.1197;stroke-linecap:round;stroke-miterlimit:10;}
	.st8{fill:none;stroke:#000000;stroke-width:15.1197;stroke-linecap:round;stroke-linejoin:round;stroke-miterlimit:10;}
	.st9{fill:none;stroke:#000000;stroke-width:16.4746;stroke-linecap:round;stroke-miterlimit:10;}
	.st10{fill:none;stroke:#000000;stroke-width:16.4746;stroke-linecap:round;stroke-linejoin:round;stroke-miterlimit:10;}
	.st11{fill:#5CC1ED;stroke:#000000;stroke-miterlimit:10;}
	.st12{fill:#00A0DC;stroke:#000000;stroke-miterlimit:10;}
	.st13{fill:#0979A6;stroke:#000000;stroke-miterlimit:10;}
	.st14{fill:#AFD9E0;stroke:#000000;stroke-miterlimit:10;}
	.st15{fill:#41A7D1;stroke:#000000;stroke-miterlimit:10;}
	.st16{fill:#E4DEE0;stroke:#000000;stroke-miterlimit:10;}
	.st17{fill:#D85938;stroke:#000000;stroke-miterlimit:10;}
	.st18{fill:#FEBA02;stroke:#000000;stroke-miterlimit:10;}
	.st19{fill:#993D22;stroke:#000000;stroke-miterlimit:10;}
	.st20{fill:#A7D4F2;stroke:#000000;stroke-miterlimit:10;}
	.st21{fill:#FFFFFF;stroke:#000000;stroke-miterlimit:10;}
	.st22{fill:#C2BEC1;stroke:#000000;stroke-miterlimit:10;}
	.st23{fill:none;stroke:#000000;stroke-width:3.3588;stroke-linecap:round;stroke-miterlimit:10;}
	.st24{fill:none;stroke:#000000;stroke-width:3.3588;stroke-linecap:round;stroke-linejoin:round;stroke-miterlimit:10;}
	.st25{fill:none;stroke:#000000;stroke-width:4.2506;stroke-linecap:round;stroke-miterlimit:10;}
	.st26{fill:none;stroke:#000000;stroke-width:4.2506;stroke-linecap:round;stroke-linejoin:round;stroke-miterlimit:10;}
	.st27{fill:none;stroke:#000000;stroke-width:4.6651;stroke-linecap:round;stroke-miterlimit:10;}
	.st28{fill:none;stroke:#000000;stroke-width:4.6651;stroke-linecap:round;stroke-linejoin:round;stroke-miterlimit:10;}
	.st29{fill:#4FAA13;stroke:#000000;stroke-width:1.5026;stroke-miterlimit:10;}
	.st30{fill:none;stroke:#000000;stroke-width:7.0097;stroke-linecap:round;stroke-miterlimit:10;}
	.st31{fill:none;stroke:#000000;stroke-width:7.0097;stroke-linecap:round;stroke-linejoin:round;stroke-miterlimit:10;}
	.st32{fill:#4FAA13;stroke:#000000;stroke-width:1.4038;stroke-miterlimit:10;}
	.st33{fill:none;stroke:#000000;stroke-width:6.5489;stroke-linecap:round;stroke-miterlimit:10;}
	.st34{fill:none;stroke:#000000;stroke-width:6.5489;stroke-linecap:round;stroke-linejoin:round;stroke-miterlimit:10;}
</style>
<g id="bg">
</g>
<g id="layer">
	<polygon class="st0" points="0,0 0,749.2 0,805.6 0,979.9 1400,979.9 1400,805.6 1400,749.2 1400,0 	"/>
	<rect y="826.8" class="st1" width="1399.9" height="153.1"/>
</g>
<g id="Layer_5">
	<rect y="571" class="st2" width="1400" height="255.8"/>
	<line class="st3" x1="16.5" y1="702.6" x2="89.9" y2="702.6"/>
	<line class="st3" x1="134.5" y1="702.6" x2="207.8" y2="702.6"/>
	<line class="st3" x1="252.5" y1="702.6" x2="325.8" y2="702.6"/>
	<line class="st3" x1="370.5" y1="702.6" x2="443.8" y2="702.6"/>
	<line class="st3" x1="488.4" y1="702.6" x2="561.8" y2="702.6"/>
	<line class="st3" x1="606.4" y1="702.6" x2="679.8" y2="702.6"/>
	<line class="st3" x1="724.4" y1="702.6" x2="797.8" y2="702.6"/>
	<line class="st3" x1="842.4" y1="702.6" x2="915.7" y2="702.6"/>
	<line class="st3" x1="960.4" y1="702.6" x2="1033.7" y2="702.6"/>
	<line class="st3" x1="1078.4" y1="702.6" x2="1151.7" y2="702.6"/>
	<line class="st3" x1="1196.3" y1="702.6" x2="1269.7" y2="702.6"/>
	<line class="st3" x1="1314.3" y1="702.6" x2="1387.7" y2="702.6"/>
	<rect y="568.6" class="st4" width="1399.9" height="53.4"/>
	<rect y="622" class="st4" width="1399.9" height="19.9"/>
	<g>
		
			<rect x="65.1" y="631.9" transform="matrix(-1 -1.224647e-016 1.224647e-016 -1 130.1535 1263.8737)" class="st5" width="0" height="0"/>
		<rect x="158.5" y="622" class="st5" width="2.4" height="19.9"/>
		<rect x="253.1" y="622" class="st5" width="2.4" height="19.9"/>
		<rect x="347.6" y="622" class="st5" width="2.4" height="19.9"/>
		<rect x="442.2" y="622" class="st5" width="2.4" height="19.9"/>
		<rect x="536.8" y="622" class="st5" width="2.4" height="19.9"/>
		<rect x="631.4" y="622" class="st5" width="2.4" height="19.9"/>
		<rect x="726" y="622" class="st5" width="2.4" height="19.9"/>
		<rect x="820.5" y="622" class="st5" width="2.4" height="19.9"/>
		<rect x="915.1" y="622" class="st5" width="2.4" height="19.9"/>
		<rect x="1009.7" y="622" class="st5" width="2.4" height="19.9"/>
		<rect x="1104.3" y="622" class="st5" width="2.4" height="19.9"/>
		<rect x="1198.9" y="622" class="st5" width="2.4" height="19.9"/>
		<rect x="1293.4" y="622" class="st5" width="2.4" height="19.9"/>
		<rect x="1388" y="622" class="st5" width="2.4" height="19.9"/>
	</g>
	<rect y="773.4" class="st4" width="1399.9" height="53.4"/>
</g>
<g id="Layer_3">
	<g>
		<defs>
			<polygon id="SVGID_1_" points="0,0 0,749.2 0,805.6 0,979.9 1400,979.9 1400,805.6 1400,749.2 1400,0 			"/>
		</defs>
		<clipPath id="SVGID_2_">
			<use xlink:href="#SVGID_1_"  style="overflow:visible;"/>
		</clipPath>
		<g class="st6">
			<g>
				<g>
					<path class="st1" d="M1208.7,660.6h-7.1c-67.7,0-122.7,54.8-122.8,122.5c0,0.1,0,0.3,0,0.4c0,29.7,10.3,57,27.4,78.5
						c-9.2,16.4-14.5,35.3-14.5,55.4c0,21.1,5.8,40.8,15.8,57.8c-2.9,11.8-3.7,24.4-2,37.5c6.2,46,44,82.3,90.1,86.5
						c59.8,5.5,110-41.5,110-100.1c0-8.2-1-16.2-2.9-23.9c10-16.9,15.8-36.7,15.8-57.8c0-20.1-5.3-39-14.5-55.4
						c17.1-21.6,27.4-48.8,27.4-78.5c0-0.1,0-0.2,0-0.4C1331.4,715.4,1276.4,660.6,1208.7,660.6z"/>
					<line class="st7" x1="1198.6" y1="1265.9" x2="1203.8" y2="833.4"/>
					<polyline class="st8" points="1284.1,901.1 1203.8,985.1 1123.5,901.1 					"/>
				</g>
			</g>
		</g>
		<g class="st6">
			<g>
				<g>
					<path class="st1" d="M320.8,650.2h-7.7c-73.8,0-133.7,59.7-133.8,133.5c0,0.1,0,0.3,0,0.4c0,32.3,11.2,62.1,29.8,85.6
						c-10,17.9-15.8,38.4-15.8,60.4c0,23,6.3,44.5,17.2,62.9c-3.1,12.9-4.1,26.6-2.1,40.9c6.8,50.1,47.9,89.7,98.2,94.3
						c65.1,6,119.8-45.2,119.8-109.1c0-9-1.1-17.7-3.1-26.1c10.9-18.4,17.2-40,17.2-62.9c0-21.9-5.7-42.5-15.8-60.4
						c18.7-23.5,29.8-53.2,29.8-85.6c0-0.1,0-0.3,0-0.4C454.5,709.9,394.6,650.2,320.8,650.2z"/>
					<line class="st9" x1="309.8" y1="1309.7" x2="315.5" y2="838.6"/>
					<polyline class="st10" points="403,912.2 315.5,1003.8 228,912.2 					"/>
				</g>
			</g>
		</g>
	</g>
</g>
<g id="Layer_11">
	<rect x="1189.6" y="248.7" class="st11" width="131.4" height="318.8"/>
	<g>
		<g>
			<polygon class="st12" points="1302.1,133.2 1271.5,107.6 1240.4,133.2 1240.4,190.4 1302.1,190.4 			"/>
			<path class="st12" d="M1294.5,198.6h12.1c1.8,0,3.3-1.5,3.3-3.3s-1.5-3.3-3.3-3.3H1253c0,0,0,0,0,0h-17.1c-1.8,0-3.3,1.5-3.3,3.3
				s1.5,3.3,3.3,3.3h11l-19.7,29.5c-1,1.5-0.6,3.6,0.9,4.6c0.6,0.4,1.2,0.6,1.8,0.6c1.1,0,2.1-0.5,2.8-1.5l22.1-33.1h32.4l16.5,32.8
				c0.6,1.2,1.7,1.8,3,1.8c0.5,0,1-0.1,1.5-0.4c1.6-0.8,2.3-2.8,1.5-4.4L1294.5,198.6z"/>
		</g>
	</g>
	<rect x="1175.8" y="229.9" class="st12" width="145.4" height="18.8"/>
	<rect x="1319.9" y="229.9" class="st13" width="53.1" height="18.8"/>
	<rect x="1319.9" y="248.7" class="st12" width="45.4" height="318.8"/>
	<rect x="1201.1" y="264.9" class="st14" width="43.6" height="13.3"/>
	<rect x="1201.1" y="292" class="st14" width="43.6" height="13.3"/>
	<rect x="1201.1" y="319.1" class="st14" width="43.6" height="13.3"/>
	<rect x="1201.1" y="346.3" class="st14" width="43.6" height="13.3"/>
	<rect x="1201.1" y="373.4" class="st14" width="43.6" height="13.3"/>
	<rect x="1201.1" y="400.6" class="st14" width="43.6" height="13.3"/>
	<rect x="1201.1" y="427.7" class="st14" width="43.6" height="13.3"/>
	<rect x="1268.2" y="264.9" class="st14" width="43.6" height="13.3"/>
	<rect x="1268.2" y="292" class="st14" width="43.6" height="13.3"/>
	<rect x="1268.2" y="319.1" class="st14" width="43.6" height="13.3"/>
	<rect x="1268.2" y="346.3" class="st14" width="43.6" height="13.3"/>
	<rect x="1268.2" y="373.4" class="st14" width="43.6" height="13.3"/>
	<rect x="1268.2" y="400.6" class="st14" width="43.6" height="13.3"/>
	<rect x="1268.2" y="427.7" class="st14" width="43.6" height="13.3"/>
	<rect x="151" y="162.1" class="st11" width="157.8" height="401.9"/>
	<rect x="418.5" y="119.4" class="st11" width="131.4" height="450"/>
	<g>
		<rect x="617.8" y="220.7" class="st11" width="161.2" height="348.7"/>
		<rect x="596.2" y="248.8" class="st11" width="204.4" height="39.6"/>
		<rect x="907.3" y="375.3" class="st11" width="204.4" height="193.3"/>
	</g>
	<rect x="548.8" y="119.4" class="st12" width="45.4" height="450"/>
	<g>
		<polygon class="st14" points="217.8,448.5 163,448.5 163,504.1 158.4,504.1 158.4,512.3 221.7,512.3 221.7,504.1 217.8,504.1 		
			"/>
		<polygon class="st14" points="296,448.5 241.3,448.5 241.3,504.1 237.7,504.1 237.7,512.3 301,512.3 301,504.1 296,504.1 		"/>
		<polygon class="st14" points="217.8,361.9 163,361.9 163,417.5 158.4,417.5 158.4,425.7 221.7,425.7 221.7,417.5 217.8,417.5 		
			"/>
		<polygon class="st14" points="296,361.9 241.3,361.9 241.3,417.5 237.7,417.5 237.7,425.7 301,425.7 301,417.5 296,417.5 		"/>
		<polygon class="st14" points="217.8,275.3 163,275.3 163,330.9 158.4,330.9 158.4,339 221.7,339 221.7,330.9 217.8,330.9 		"/>
		<polygon class="st14" points="296,275.3 241.3,275.3 241.3,330.9 237.7,330.9 237.7,339 301,339 301,330.9 296,330.9 		"/>
		<polygon class="st14" points="217.8,188.7 163,188.7 163,244.3 158.4,244.3 158.4,252.4 221.7,252.4 221.7,244.3 217.8,244.3 		
			"/>
		<polygon class="st14" points="296,188.7 241.3,188.7 241.3,244.3 237.7,244.3 237.7,252.4 301,252.4 301,244.3 296,244.3 		"/>
		<rect x="427.5" y="145.8" class="st14" width="113.2" height="18.7"/>
		<rect x="427.5" y="184.1" class="st14" width="113.2" height="18.7"/>
		<rect x="427.5" y="222.4" class="st14" width="113.2" height="18.7"/>
		<rect x="427.5" y="260.7" class="st14" width="113.2" height="18.7"/>
		<rect x="427.5" y="299" class="st14" width="113.2" height="18.7"/>
		<rect x="427.5" y="337.4" class="st14" width="113.2" height="18.7"/>
		<rect x="427.5" y="375.7" class="st14" width="113.2" height="18.7"/>
	</g>
	<g>
		
			<rect x="828.8" y="326" transform="matrix(-1 -4.489798e-011 4.489798e-011 -1 1815.9999 667.6769)" class="st15" width="158.4" height="15.6"/>
		<polygon class="st15" points="847.2,326 968.8,326 968.8,310.4 892.7,299.5 867.6,299.5 		"/>
		
			<rect x="835.8" y="341.6" transform="matrix(-1 -4.490509e-011 4.490509e-011 -1 1815.9999 910.8381)" class="st15" width="144.4" height="227.5"/>
	</g>
	<g>
		
			<rect x="803.7" y="326" transform="matrix(-1 -4.489221e-011 4.489221e-011 -1 1747.4183 667.6769)" class="st11" width="140" height="15.6"/>
		<polygon class="st11" points="822.1,326 925.3,326 925.3,310.4 867.6,299.5 822.1,310.4 		"/>
		
			<rect x="810.7" y="341.6" transform="matrix(-1 -4.491353e-011 4.491353e-011 -1 1747.4183 910.8381)" class="st11" width="126" height="227.5"/>
	</g>
</g>
<g id="Layer_6">
	<g>
		<rect x="993.7" y="291" class="st16" width="176.2" height="279.3"/>
		<g>
			<g>
				<g>
					
						<rect x="1000.5" y="457.1" transform="matrix(-1.836970e-016 1 -1 -1.836970e-016 1495.9038 -548.6066)" class="st17" width="43.4" height="33"/>
					<rect x="1002.9" y="493" class="st17" width="38.2" height="6"/>
					<rect x="1122.7" y="493" class="st17" width="38.2" height="6"/>
					<rect x="1009.6" y="456.3" class="st18" width="25.3" height="34.6"/>
					
						<rect x="1119.7" y="457.1" transform="matrix(-1.836970e-016 1 -1 -1.836970e-016 1615.0269 -667.7298)" class="st17" width="43.4" height="33"/>
					<rect x="1128.7" y="456.3" class="st11" width="25.3" height="34.6"/>
				</g>
				<g>
					
						<rect x="1000.5" y="393.1" transform="matrix(-1.836970e-016 1 -1 -1.836970e-016 1431.864 -612.6464)" class="st17" width="43.4" height="33"/>
					<rect x="1002.9" y="429" class="st17" width="38.2" height="6"/>
					<rect x="1122.7" y="429" class="st17" width="38.2" height="6"/>
					<rect x="1009.6" y="392.3" class="st11" width="25.3" height="34.6"/>
					
						<rect x="1119.7" y="393.1" transform="matrix(-1.836970e-016 1 -1 -1.836970e-016 1550.9872 -731.7695)" class="st17" width="43.4" height="33"/>
					<rect x="1128.7" y="392.3" class="st18" width="25.3" height="34.6"/>
				</g>
				<g>
					
						<rect x="1000.5" y="329.1" transform="matrix(-1.836970e-016 1 -1 -1.836970e-016 1367.8242 -676.6861)" class="st17" width="43.4" height="33"/>
					<rect x="1002.9" y="364.9" class="st17" width="38.2" height="6"/>
					<rect x="1122.7" y="364.9" class="st17" width="38.2" height="6"/>
					<rect x="1009.6" y="328.2" class="st11" width="25.3" height="34.6"/>
					
						<rect x="1119.7" y="329.1" transform="matrix(-1.836970e-016 1 -1 -1.836970e-016 1486.9474 -795.8093)" class="st17" width="43.4" height="33"/>
					<rect x="1128.7" y="328.2" class="st11" width="25.3" height="34.6"/>
				</g>
				<g>
					<rect x="1063.6" y="364.9" class="st17" width="38.2" height="6"/>
					
						<rect x="1060.8" y="329.1" transform="matrix(-1.836970e-016 1 -1 -1.836970e-016 1428.1183 -736.9801)" class="st17" width="43.4" height="33"/>
					<rect x="1069.9" y="328.2" class="st11" width="25.3" height="34.6"/>
					<rect x="1063.6" y="429" class="st17" width="38.2" height="6"/>
					
						<rect x="1060.8" y="393.1" transform="matrix(-1.836970e-016 1 -1 -1.836970e-016 1492.1581 -672.9404)" class="st17" width="43.4" height="33"/>
					<rect x="1069.9" y="392.3" class="st11" width="25.3" height="34.6"/>
					<rect x="1063.6" y="493" class="st17" width="38.2" height="6"/>
					
						<rect x="1060.8" y="457.1" transform="matrix(-1.836970e-016 1 -1 -1.836970e-016 1556.1978 -608.9006)" class="st17" width="43.4" height="33"/>
					<rect x="1069.9" y="456.3" class="st11" width="25.3" height="34.6"/>
				</g>
				
					<rect x="1052.4" y="520.9" transform="matrix(-1.836970e-016 1 -1 -1.836970e-016 1622.7797 -542.7405)" class="st17" width="60.8" height="38.2"/>
				<rect x="1066.6" y="512.9" class="st11" width="32.3" height="54.2"/>
			</g>
		</g>
	</g>
	<rect x="987.8" y="267.9" class="st17" width="188" height="23.1"/>
</g>
<g id="Layer_7">
	<g>
		<rect x="745.1" y="415.2" class="st16" width="179.9" height="155"/>
		<rect x="741.1" y="410" class="st19" width="190.3" height="5.7"/>
		<g>
			
				<rect x="768" y="430.5" transform="matrix(-1.836970e-016 1 -1 -1.836970e-016 1229.7417 -336.3262)" class="st20" width="30.1" height="32.4"/>
			<rect x="769.8" y="434.7" class="st11" width="26.5" height="24"/>
			
				<rect x="821.2" y="430.3" transform="matrix(-1.836970e-016 1 -1 -1.836970e-016 1282.8975 -389.4819)" class="st20" width="30.1" height="32.8"/>
			<rect x="823" y="434.7" class="st11" width="26.5" height="24"/>
		</g>
		<g>
			
				<rect x="874.1" y="430.3" transform="matrix(-1.836970e-016 1 -1 -1.836970e-016 1335.8567 -442.4412)" class="st20" width="30.1" height="32.8"/>
			<rect x="875.9" y="434.7" class="st11" width="26.5" height="24"/>
		</g>
		<g>
			
				<rect x="768" y="476.6" transform="matrix(-1.836970e-016 1 -1 -1.836970e-016 1275.8768 -290.1911)" class="st20" width="30.1" height="32.4"/>
			<rect x="769.8" y="480.9" class="st11" width="26.5" height="24"/>
			
				<rect x="821.2" y="476.4" transform="matrix(-1.836970e-016 1 -1 -1.836970e-016 1329.0326 -343.3468)" class="st20" width="30.1" height="32.8"/>
			<rect x="823" y="480.9" class="st11" width="26.5" height="24"/>
		</g>
		<g>
			
				<rect x="874.1" y="476.4" transform="matrix(-1.836970e-016 1 -1 -1.836970e-016 1381.9918 -396.3061)" class="st20" width="30.1" height="32.8"/>
			<rect x="875.9" y="480.9" class="st11" width="26.5" height="24"/>
		</g>
		<g>
			
				<rect x="768" y="522.8" transform="matrix(-1.836970e-016 1 -1 -1.836970e-016 1322.012 -244.056)" class="st20" width="30.1" height="32.4"/>
			<rect x="769.8" y="527" class="st11" width="26.5" height="24"/>
			
				<rect x="821.2" y="522.6" transform="matrix(-1.836970e-016 1 -1 -1.836970e-016 1375.1676 -297.2117)" class="st20" width="30.1" height="32.8"/>
			<rect x="823" y="527" class="st11" width="26.5" height="24"/>
		</g>
		<g>
			
				<rect x="874.1" y="522.6" transform="matrix(-1.836970e-016 1 -1 -1.836970e-016 1428.127 -350.171)" class="st20" width="30.1" height="32.8"/>
			<rect x="875.9" y="527" class="st11" width="26.5" height="24"/>
		</g>
	</g>
</g>
<g id="Layer_8">
	<g>
		<rect x="522.4" y="287.3" class="st16" width="176.2" height="284.3"/>
		<g>
			<g>
				<g>
					
						<rect x="529.2" y="377.8" transform="matrix(-1.836970e-016 1 -1 -1.836970e-016 945.2769 -156.6344)" class="st21" width="43.4" height="33"/>
					<rect x="538.3" y="377" class="st18" width="25.3" height="34.6"/>
					
						<rect x="648.4" y="377.8" transform="matrix(-1.836970e-016 1 -1 -1.836970e-016 1064.4 -275.7576)" class="st21" width="43.4" height="33"/>
					<rect x="657.4" y="377" class="st11" width="25.3" height="34.6"/>
				</g>
				<g>
					
						<rect x="529.2" y="313.8" transform="matrix(-1.836970e-016 1 -1 -1.836970e-016 881.2371 -220.6741)" class="st21" width="43.4" height="33"/>
					<rect x="538.3" y="313" class="st11" width="25.3" height="34.6"/>
					
						<rect x="648.4" y="313.8" transform="matrix(-1.836970e-016 1 -1 -1.836970e-016 1000.3603 -339.7973)" class="st21" width="43.4" height="33"/>
					<rect x="657.4" y="313" class="st18" width="25.3" height="34.6"/>
				</g>
				<g>
					
						<rect x="589.5" y="313.8" transform="matrix(-1.836970e-016 1 -1 -1.836970e-016 941.5311 -280.9682)" class="st21" width="43.4" height="33"/>
					<rect x="598.6" y="313" class="st11" width="25.3" height="34.6"/>
					
						<rect x="589.5" y="377.8" transform="matrix(-1.836970e-016 1 -1 -1.836970e-016 1005.5709 -216.9284)" class="st21" width="43.4" height="33"/>
					<rect x="598.6" y="377" class="st11" width="25.3" height="34.6"/>
					<g>
						
							<rect x="529.2" y="441.4" transform="matrix(-1.836970e-016 1 -1 -1.836970e-016 1008.869 -93.0422)" class="st21" width="43.4" height="33"/>
						<rect x="538.3" y="440.6" class="st18" width="25.3" height="34.6"/>
						
							<rect x="648.4" y="441.4" transform="matrix(-1.836970e-016 1 -1 -1.836970e-016 1127.9922 -212.1654)" class="st21" width="43.4" height="33"/>
						<rect x="657.4" y="440.6" class="st11" width="25.3" height="34.6"/>
					</g>
					
						<rect x="589.5" y="441.4" transform="matrix(-1.836970e-016 1 -1 -1.836970e-016 1069.1631 -153.3363)" class="st21" width="43.4" height="33"/>
					<rect x="598.6" y="440.6" class="st11" width="25.3" height="34.6"/>
					<g>
						
							<rect x="529.2" y="505" transform="matrix(-1.836970e-016 1 -1 -1.836970e-016 1072.4612 -29.4501)" class="st21" width="43.4" height="33"/>
						<rect x="538.3" y="504.2" class="st18" width="25.3" height="34.6"/>
						
							<rect x="648.4" y="505" transform="matrix(-1.836970e-016 1 -1 -1.836970e-016 1191.5844 -148.5732)" class="st21" width="43.4" height="33"/>
						<rect x="657.4" y="504.2" class="st11" width="25.3" height="34.6"/>
					</g>
					
						<rect x="589.5" y="505" transform="matrix(-1.836970e-016 1 -1 -1.836970e-016 1132.7552 -89.7441)" class="st21" width="43.4" height="33"/>
					<rect x="598.6" y="504.2" class="st11" width="25.3" height="34.6"/>
				</g>
			</g>
		</g>
	</g>
	<rect x="516.5" y="264.2" class="st17" width="188" height="23.1"/>
</g>
<g id="Layer_9">
	<g>
		<rect x="279.9" y="221.4" class="st16" width="221.2" height="347.8"/>
		<rect x="275.9" y="216.3" class="st19" width="231.6" height="5.7"/>
		<g>
			
				<rect x="297.6" y="236.7" transform="matrix(-1.836970e-016 1 -1 -1.836970e-016 565.6073 -59.7384)" class="st20" width="30.1" height="32.4"/>
			<rect x="299.4" y="240.9" class="st11" width="26.5" height="24"/>
			
				<rect x="350.8" y="236.5" transform="matrix(-1.836970e-016 1 -1 -1.836970e-016 618.763 -112.8942)" class="st20" width="30.1" height="32.8"/>
			<rect x="352.6" y="240.9" class="st11" width="26.5" height="24"/>
		</g>
		<g>
			
				<rect x="403.8" y="236.5" transform="matrix(-1.836970e-016 1 -1 -1.836970e-016 671.7223 -165.8535)" class="st20" width="30.1" height="32.8"/>
			<rect x="405.6" y="240.9" class="st11" width="26.5" height="24"/>
		</g>
		<g>
			
				<rect x="297.6" y="282.9" transform="matrix(-1.836970e-016 1 -1 -1.836970e-016 611.7424 -13.6033)" class="st20" width="30.1" height="32.4"/>
			<rect x="299.4" y="287.1" class="st11" width="26.5" height="24"/>
			
				<rect x="350.8" y="282.7" transform="matrix(-1.836970e-016 1 -1 -1.836970e-016 664.8981 -66.7591)" class="st20" width="30.1" height="32.8"/>
			<rect x="352.6" y="287.1" class="st11" width="26.5" height="24"/>
		</g>
		<g>
			
				<rect x="403.8" y="282.7" transform="matrix(-1.836970e-016 1 -1 -1.836970e-016 717.8574 -119.7184)" class="st20" width="30.1" height="32.8"/>
			<rect x="405.6" y="287.1" class="st11" width="26.5" height="24"/>
		</g>
		<g>
			
				<rect x="297.6" y="329" transform="matrix(-1.836970e-016 1 -1 -1.836970e-016 657.8775 32.5317)" class="st20" width="30.1" height="32.4"/>
			<rect x="299.4" y="333.2" class="st11" width="26.5" height="24"/>
			
				<rect x="350.8" y="328.8" transform="matrix(-1.836970e-016 1 -1 -1.836970e-016 711.0332 -20.624)" class="st20" width="30.1" height="32.8"/>
			<rect x="352.6" y="333.2" class="st11" width="26.5" height="24"/>
		</g>
		<g>
			
				<rect x="403.8" y="328.8" transform="matrix(-1.836970e-016 1 -1 -1.836970e-016 763.9925 -73.5833)" class="st20" width="30.1" height="32.8"/>
			<rect x="405.6" y="333.2" class="st11" width="26.5" height="24"/>
		</g>
		<g>
			
				<rect x="455.4" y="236.5" transform="matrix(-1.836970e-016 1 -1 -1.836970e-016 723.3943 -217.5254)" class="st20" width="30.1" height="32.8"/>
			<rect x="457.2" y="240.9" class="st11" width="26.5" height="24"/>
		</g>
		<g>
			
				<rect x="455.4" y="282.7" transform="matrix(-1.836970e-016 1 -1 -1.836970e-016 769.5294 -171.3903)" class="st20" width="30.1" height="32.8"/>
			<rect x="457.2" y="287.1" class="st11" width="26.5" height="24"/>
		</g>
		<g>
			
				<rect x="455.4" y="328.8" transform="matrix(-1.836970e-016 1 -1 -1.836970e-016 815.6645 -125.2552)" class="st20" width="30.1" height="32.8"/>
			<rect x="457.2" y="333.2" class="st11" width="26.5" height="24"/>
		</g>
		<g>
			
				<rect x="297.6" y="369.7" transform="matrix(-1.836970e-016 1 -1 -1.836970e-016 698.6073 73.2616)" class="st20" width="30.1" height="32.4"/>
			<rect x="299.4" y="373.9" class="st11" width="26.5" height="24"/>
			
				<rect x="350.8" y="369.5" transform="matrix(-1.836970e-016 1 -1 -1.836970e-016 751.763 20.1058)" class="st20" width="30.1" height="32.8"/>
			<rect x="352.6" y="373.9" class="st11" width="26.5" height="24"/>
		</g>
		<g>
			
				<rect x="403.8" y="369.5" transform="matrix(-1.836970e-016 1 -1 -1.836970e-016 804.7223 -32.8535)" class="st20" width="30.1" height="32.8"/>
			<rect x="405.6" y="373.9" class="st11" width="26.5" height="24"/>
		</g>
		<g>
			
				<rect x="297.6" y="415.9" transform="matrix(-1.836970e-016 1 -1 -1.836970e-016 744.7424 119.3967)" class="st20" width="30.1" height="32.4"/>
			<rect x="299.4" y="420.1" class="st11" width="26.5" height="24"/>
			
				<rect x="350.8" y="415.7" transform="matrix(-1.836970e-016 1 -1 -1.836970e-016 797.8981 66.2409)" class="st20" width="30.1" height="32.8"/>
			<rect x="352.6" y="420.1" class="st11" width="26.5" height="24"/>
		</g>
		<g>
			
				<rect x="403.8" y="415.7" transform="matrix(-1.836970e-016 1 -1 -1.836970e-016 850.8574 13.2816)" class="st20" width="30.1" height="32.8"/>
			<rect x="405.6" y="420.1" class="st11" width="26.5" height="24"/>
		</g>
		<g>
			
				<rect x="297.6" y="462" transform="matrix(-1.836970e-016 1 -1 -1.836970e-016 790.8775 165.5318)" class="st20" width="30.1" height="32.4"/>
			<rect x="299.4" y="466.2" class="st11" width="26.5" height="24"/>
			
				<rect x="350.8" y="461.8" transform="matrix(-1.836970e-016 1 -1 -1.836970e-016 844.0332 112.376)" class="st20" width="30.1" height="32.8"/>
			<rect x="352.6" y="466.2" class="st11" width="26.5" height="24"/>
		</g>
		<g>
			
				<rect x="403.8" y="461.8" transform="matrix(-1.836970e-016 1 -1 -1.836970e-016 896.9925 59.4167)" class="st20" width="30.1" height="32.8"/>
			<rect x="405.6" y="466.2" class="st11" width="26.5" height="24"/>
		</g>
		<g>
			
				<rect x="455.4" y="369.5" transform="matrix(-1.836970e-016 1 -1 -1.836970e-016 856.3943 -84.5254)" class="st20" width="30.1" height="32.8"/>
			<rect x="457.2" y="373.9" class="st11" width="26.5" height="24"/>
		</g>
		<g>
			
				<rect x="455.4" y="415.7" transform="matrix(-1.836970e-016 1 -1 -1.836970e-016 902.5294 -38.3903)" class="st20" width="30.1" height="32.8"/>
			<rect x="457.2" y="420.1" class="st11" width="26.5" height="24"/>
		</g>
		<g>
			
				<rect x="455.4" y="461.8" transform="matrix(-1.836970e-016 1 -1 -1.836970e-016 948.6645 7.7448)" class="st20" width="30.1" height="32.8"/>
			<rect x="457.2" y="466.2" class="st11" width="26.5" height="24"/>
		</g>
	</g>
</g>
<g id="Layer_10">
	<g>
		<polygon class="st16" points="24.4,306.6 23.2,571 199.6,571 200.8,306.6 		"/>
		<polygon class="st22" points="274.5,306.6 200.8,306.6 199.6,571 273.3,571 		"/>
		<g>
			<g>
				<g>
					
						<rect x="209.4" y="490.5" transform="matrix(-1.159156e-002 0.9999 -0.9999 -1.159156e-002 752.1735 280.9252)" class="st21" width="55.6" height="43.4"/>
					
						<rect x="221" y="490" transform="matrix(0.9999 1.159156e-002 -1.159156e-002 0.9999 5.9533 -2.7156)" class="st18" width="32.6" height="44.4"/>
				</g>
			</g>
		</g>
		<g>
			<g>
				<g>
					
						<rect x="28.7" y="490.5" transform="matrix(-1.159156e-002 0.9999 -0.9999 -1.159156e-002 569.3698 461.6221)" class="st21" width="55.6" height="43.4"/>
					
						<rect x="40.3" y="490" transform="matrix(0.9999 1.159156e-002 -1.159156e-002 0.9999 5.9412 -0.6209)" class="st18" width="32.6" height="44.4"/>
				</g>
			</g>
		</g>
		<g>
			<g>
				<g>
					
						<rect x="86.1" y="490.5" transform="matrix(-1.159156e-002 0.9999 -0.9999 -1.159156e-002 627.455 404.2063)" class="st21" width="55.6" height="43.4"/>
					
						<rect x="97.7" y="490" transform="matrix(0.9999 1.159156e-002 -1.159156e-002 0.9999 5.945 -1.2865)" class="st18" width="32.6" height="44.4"/>
				</g>
			</g>
		</g>
		<g>
			<g>
				<g>
					
						<rect x="209.4" y="412" transform="matrix(-1.159156e-002 0.9999 -0.9999 -1.159156e-002 673.6915 201.5281)" class="st21" width="55.6" height="43.4"/>
					
						<rect x="221" y="411.5" transform="matrix(0.9999 1.159156e-002 -1.159156e-002 0.9999 5.0435 -2.7209)" class="st18" width="32.6" height="44.4"/>
				</g>
			</g>
		</g>
		<g>
			<g>
				<g>
					
						<rect x="28.7" y="412" transform="matrix(-1.159156e-002 0.9999 -0.9999 -1.159156e-002 490.8877 382.2249)" class="st21" width="55.6" height="43.4"/>
					
						<rect x="40.3" y="411.5" transform="matrix(0.9999 1.159156e-002 -1.159156e-002 0.9999 5.0314 -0.6262)" class="st18" width="32.6" height="44.4"/>
				</g>
			</g>
		</g>
		<g>
			<g>
				<g>
					
						<rect x="86.1" y="412" transform="matrix(-1.159156e-002 0.9999 -0.9999 -1.159156e-002 548.9729 324.8092)" class="st21" width="55.6" height="43.4"/>
					
						<rect x="97.7" y="411.5" transform="matrix(0.9999 1.159156e-002 -1.159156e-002 0.9999 5.0352 -1.2918)" class="st18" width="32.6" height="44.4"/>
				</g>
			</g>
		</g>
		<g>
			<g>
				<g>
					
						<rect x="209.4" y="333.6" transform="matrix(-1.159156e-002 0.9999 -0.9999 -1.159156e-002 595.2094 122.1309)" class="st21" width="55.6" height="43.4"/>
					
						<rect x="221" y="333.1" transform="matrix(0.9999 1.159156e-002 -1.159156e-002 0.9999 4.1337 -2.7262)" class="st18" width="32.6" height="44.4"/>
				</g>
			</g>
		</g>
		<g>
			<g>
				<g>
					
						<rect x="28.7" y="333.6" transform="matrix(-1.159156e-002 0.9999 -0.9999 -1.159156e-002 412.4056 302.8278)" class="st21" width="55.6" height="43.4"/>
					
						<rect x="40.3" y="333.1" transform="matrix(0.9999 1.159156e-002 -1.159156e-002 0.9999 4.1216 -0.6315)" class="st18" width="32.6" height="44.4"/>
				</g>
			</g>
		</g>
		<g>
			<g>
				<g>
					
						<rect x="86.1" y="333.6" transform="matrix(-1.159156e-002 0.9999 -0.9999 -1.159156e-002 470.4908 245.4121)" class="st21" width="55.6" height="43.4"/>
					
						<rect x="97.7" y="333.1" transform="matrix(0.9999 1.159156e-002 -1.159156e-002 0.9999 4.1254 -1.297)" class="st18" width="32.6" height="44.4"/>
				</g>
			</g>
		</g>
		<g>
			<g>
				<g>
					
						<rect x="141.4" y="412" transform="matrix(-1.159156e-002 0.9999 -0.9999 -1.159156e-002 604.9282 269.4988)" class="st21" width="55.6" height="43.4"/>
					
						<rect x="153" y="411.5" transform="matrix(0.9999 1.159156e-002 -1.159156e-002 0.9999 5.0389 -1.9329)" class="st18" width="32.6" height="44.4"/>
				</g>
			</g>
		</g>
		<g>
			<g>
				<g>
					
						<rect x="141.4" y="333.6" transform="matrix(-1.159156e-002 0.9999 -0.9999 -1.159156e-002 526.4461 190.1017)" class="st21" width="55.6" height="43.4"/>
					
						<rect x="153" y="333.1" transform="matrix(0.9999 1.159156e-002 -1.159156e-002 0.9999 4.1292 -1.9382)" class="st18" width="32.6" height="44.4"/>
				</g>
			</g>
		</g>
		<g>
			<g>
				<g>
					<polygon class="st21" points="148.5,566.7 148.3,483.5 190.1,483.1 190.3,566.4 					"/>
					<polygon class="st11" points="186.6,563.3 152.1,563.6 151.9,486.5 186.4,486.3 					"/>
				</g>
			</g>
		</g>
	</g>
	<rect x="195.7" y="295.8" class="st19" width="88.8" height="13.9"/>
	<rect x="17.6" y="295.8" class="st17" width="178.1" height="13.9"/>
</g>
<g id="Layer_12">
	<path class="st21" d="M211.2,49.6c-8.1-6.3-16.4-7.9-23.6-6.5c-5.7-10.9-17.2-18.4-30.4-18.4c-14.3,0-26.6,8.8-31.7,21.3
		C107.7,47.3,95.2,68,109.6,87c0,0,0,0,0,0c11.1,8.5,22.9,7.7,30.9,2.1c4.9,2.7,10.6,4.3,16.6,4.3c7.1,0,13.7-2.2,19.2-5.9
		c4.4,3.7,10,5.9,16.2,5.9c19.7,0,34.2-22.6,19.1-43.3C211.5,49.9,211.4,49.8,211.2,49.6z"/>
	<path class="st21" d="M347.9,87c-5.7-4.5-11.5-5.6-16.6-4.6c-4-7.6-11.9-12.7-21.1-12.7c-9.9,0-18.5,6.1-22,14.8
		c-12.3,0.8-21,15.2-11,28.4c7.7,5.9,15.9,5.4,21.5,1.4c3.4,1.9,7.3,3,11.5,3c4.9,0,9.5-1.5,13.3-4.1c3.1,2.5,7,4.1,11.3,4.1
		C348.6,117.2,358.7,101.4,347.9,87z"/>
	<path class="st21" d="M717.5,151.5c-4.7-3.7-9.4-4.6-13.6-3.8c-3.3-6.2-9.8-10.4-17.3-10.4c-8.1,0-15.1,5-18,12.1
		c-10.1,0.7-17.2,12.5-9,23.3c6.3,4.8,13,4.4,17.6,1.2c2.8,1.5,6,2.4,9.4,2.4c4,0,7.8-1.2,10.9-3.3c2.5,2.1,5.7,3.3,9.2,3.3
		C718.1,176.2,726.3,163.3,717.5,151.5z"/>
	<path class="st21" d="M924.7,182.5c-8.4-6.7-17-8.3-24.4-6.8c-5.9-11.2-17.6-18.8-31.1-18.8c-14.7,0-27.2,9-32.5,21.8
		c-18.2,1.2-30.9,22.5-16.2,41.9c11.4,8.7,23.4,7.9,31.6,2.1c5,2.8,10.8,4.4,17,4.4c7.3,0,14-2.2,19.6-6c4.5,3.7,10.3,6,16.6,6
		C925.7,227,940.5,203.8,924.7,182.5z"/>
	<path class="st21" d="M561.5,50.9c-7.2-5.8-14.7-7.2-21.1-5.9c-5.1-9.7-15.2-16.2-26.9-16.2c-12.7,0-23.5,7.8-28.1,18.8
		c-15.7,1-26.7,19.4-14,36.2c9.9,7.5,20.2,6.8,27.4,1.8c4.4,2.4,9.4,3.8,14.7,3.8c6.3,0,12.1-1.9,17-5.2c3.9,3.2,8.9,5.2,14.3,5.2
		C562.3,89.4,575.2,69.3,561.5,50.9z"/>
	<path class="st21" d="M1164.3,186.5c-6-4.7-12.1-5.8-17.4-4.7c-4.2-8-12.6-13.5-22.3-13.5c-10.5,0-19.6,6.5-23.3,15.6
		c-13.1,0.9-22.2,16.1-11.6,30.1c0,0,0,0,0,0c8.2,6.2,16.8,5.7,22.7,1.5c3.6,2,7.8,3.1,12.2,3.1c5.2,0,10.1-1.6,14.1-4.3
		c3.2,2.7,7.4,4.3,11.9,4.3c14.5,0,25.1-16.6,14-31.8C1164.5,186.7,1164.4,186.6,1164.3,186.5z"/>
	<path class="st21" d="M1371.5,45.1c-7.5-5.9-15.2-7.4-21.8-6.1c-5.2-10-15.7-16.8-27.8-16.8c-13.1,0-24.3,8-29,19.5
		c-16.2,1.1-27.6,20.1-14.4,37.4c10.2,7.8,20.9,7.1,28.3,1.9c4.5,2.5,9.7,3.9,15.2,3.9c6.5,0,12.5-2,17.5-5.4
		c4,3.3,9.2,5.4,14.8,5.4C1372.4,84.9,1385.6,64.2,1371.5,45.1z"/>
	<path class="st21" d="M873.4,57.1c-11-8.8-22.4-11-32.2-9c-7.7-14.7-23.1-24.7-40.9-24.7c-19.3,0-35.8,11.9-42.7,28.7
		c-23.9,1.6-40.7,29.6-21.3,55.1c15,11.5,30.8,10.4,41.7,2.8c6.6,3.7,14.2,5.8,22.3,5.8c9.6,0,18.5-2.9,25.8-7.9
		c5.9,4.9,13.5,7.9,21.8,7.9C874.7,115.8,894.2,85.2,873.4,57.1z"/>
	<path class="st21" d="M1084.3,67.8c-4.8-8.8-14.1-14.8-24.9-14.8c-2.1,0-4.1,0.2-6.1,0.7c-6.8-9.9-18.2-16.5-31.2-16.5
		c-12.7,0-23.9,6.2-30.7,15.8c-0.1,0-0.2,0-0.3,0c-13.8,0-25.2,9.8-27.8,22.9c-8.3,2.7-14.1,11-13,20.4c1.1,8.7,8.3,15.6,17,16.4
		c5.5,0.5,10.6-1.4,14.3-4.7c3,1,6.1,1.6,9.5,1.6c4,0,7.9-0.8,11.3-2.4c5.7,3.5,12.5,5.5,19.7,5.5c8.4,0,16.1-2.7,22.4-7.4
		c4.3,2.7,9.4,4.2,14.8,4.2c2,0,3.9-0.2,5.7-0.6c3.9,2.6,8.6,4,13.7,3.7c11.5-0.6,21-9.8,21.8-21.3
		C1101.4,80.3,1094.3,70.8,1084.3,67.8z"/>
	<path class="st21" d="M116.8,186.9c-3.4-6.2-10-10.5-17.6-10.5c-1.5,0-2.9,0.2-4.3,0.5c-4.8-7-12.9-11.6-22-11.6
		c-8.9,0-16.8,4.4-21.7,11.2c-0.1,0-0.1,0-0.2,0c-9.7,0-17.8,6.9-19.6,16.1c-5.9,1.9-10,7.7-9.1,14.4c0.8,6.1,5.8,11,12,11.6
		c3.9,0.4,7.4-1,10.1-3.3c2.1,0.7,4.3,1.1,6.7,1.1c2.8,0,5.5-0.6,8-1.7c4,2.5,8.8,3.9,13.9,3.9c5.9,0,11.4-1.9,15.8-5.2
		c3,1.9,6.6,3,10.5,3c1.4,0,2.7-0.1,4-0.4c2.7,1.8,6.1,2.8,9.6,2.6c8.1-0.4,14.8-6.9,15.3-15C128.8,195.7,123.8,189,116.8,186.9z"/>
</g>
<g id="Layer_13">
	<g>
		<g>
			<path class="st1" d="M982.4,434.7h-1.6c-15,0-27.3,12.2-27.3,27.2c0,0,0,0.1,0,0.1c0,6.6,2.3,12.7,6.1,17.4
				c-2,3.6-3.2,7.8-3.2,12.3c0,4.7,1.3,9.1,3.5,12.8c-0.6,2.6-0.8,5.4-0.4,8.3c1.4,10.2,9.8,18.3,20,19.2
				c13.3,1.2,24.4-9.2,24.4-22.2c0-1.8-0.2-3.6-0.6-5.3c2.2-3.8,3.5-8.1,3.5-12.8c0-4.5-1.2-8.7-3.2-12.3c3.8-4.8,6.1-10.8,6.1-17.4
				c0,0,0-0.1,0-0.1C1009.7,446.9,997.5,434.7,982.4,434.7z"/>
			<line class="st23" x1="980.2" y1="569.2" x2="981.3" y2="473.1"/>
			<polyline class="st24" points="999.2,488.1 981.3,506.8 963.5,488.1 			"/>
		</g>
	</g>
	<g>
		<g>
			<path class="st1" d="M725.1,401.2h-2c-19,0-34.5,15.4-34.5,34.4c0,0,0,0.1,0,0.1c0,8.3,2.9,16,7.7,22.1
				c-2.6,4.6-4.1,9.9-4.1,15.6c0,5.9,1.6,11.5,4.4,16.2c-0.8,3.3-1,6.9-0.6,10.5c1.7,12.9,12.4,23.1,25.3,24.3
				c16.8,1.5,30.9-11.7,30.9-28.1c0-2.3-0.3-4.6-0.8-6.7c2.8-4.8,4.4-10.3,4.4-16.2c0-5.7-1.5-11-4.1-15.6
				c4.8-6.1,7.7-13.7,7.7-22.1c0,0,0-0.1,0-0.1C759.6,416.6,744.1,401.2,725.1,401.2z"/>
			<line class="st25" x1="722.3" y1="571.3" x2="723.7" y2="449.8"/>
			<polyline class="st26" points="746.3,468.8 723.7,492.4 701.1,468.8 			"/>
		</g>
	</g>
	<g>
		<g>
			<path class="st1" d="M517.3,434.7h-1.6c-15,0-27.3,12.2-27.3,27.2c0,0,0,0.1,0,0.1c0,6.6,2.3,12.7,6.1,17.4
				c-2,3.6-3.2,7.8-3.2,12.3c0,4.7,1.3,9.1,3.5,12.8c-0.6,2.6-0.8,5.4-0.4,8.3c1.4,10.2,9.8,18.3,20,19.2
				c13.3,1.2,24.4-9.2,24.4-22.2c0-1.8-0.2-3.6-0.6-5.3c2.2-3.8,3.5-8.1,3.5-12.8c0-4.5-1.2-8.7-3.2-12.3c3.8-4.8,6.1-10.8,6.1-17.4
				c0,0,0-0.1,0-0.1C544.6,446.9,532.4,434.7,517.3,434.7z"/>
			<line class="st23" x1="515.1" y1="569.2" x2="516.2" y2="473.1"/>
			<polyline class="st24" points="534.1,488.1 516.2,506.8 498.4,488.1 			"/>
		</g>
	</g>
	<g>
		<g>
			<path class="st1" d="M276.6,434.7h-1.6c-15,0-27.3,12.2-27.3,27.2c0,0,0,0.1,0,0.1c0,6.6,2.3,12.7,6.1,17.4
				c-2,3.6-3.2,7.8-3.2,12.3c0,4.7,1.3,9.1,3.5,12.8c-0.6,2.6-0.8,5.4-0.4,8.3c1.4,10.2,9.8,18.3,20,19.2
				c13.3,1.2,24.4-9.2,24.4-22.2c0-1.8-0.2-3.6-0.6-5.3c2.2-3.8,3.5-8.1,3.5-12.8c0-4.5-1.2-8.7-3.2-12.3c3.8-4.8,6.1-10.8,6.1-17.4
				c0,0,0-0.1,0-0.1C303.9,446.9,291.7,434.7,276.6,434.7z"/>
			<line class="st23" x1="274.4" y1="569.2" x2="275.6" y2="473.1"/>
			<polyline class="st24" points="293.4,488.1 275.6,506.8 257.7,488.1 			"/>
		</g>
	</g>
	<g>
		<g>
			<path class="st1" d="M1181.9,387.5h-2.2c-20.9,0-37.8,16.9-37.9,37.8c0,0,0,0.1,0,0.1c0,9.2,3.2,17.6,8.5,24.2
				c-2.8,5.1-4.5,10.9-4.5,17.1c0,6.5,1.8,12.6,4.9,17.8c-0.9,3.6-1.2,7.5-0.6,11.6c1.9,14.2,13.6,25.4,27.8,26.7
				c18.4,1.7,33.9-12.8,33.9-30.9c0-2.5-0.3-5-0.9-7.4c3.1-5.2,4.9-11.3,4.9-17.8c0-6.2-1.6-12-4.5-17.1c5.3-6.7,8.5-15.1,8.5-24.2
				c0,0,0-0.1,0-0.1C1219.7,404.4,1202.8,387.5,1181.9,387.5z"/>
			<line class="st27" x1="1178.8" y1="574.2" x2="1180.4" y2="440.8"/>
			<polyline class="st28" points="1205.2,461.7 1180.4,487.6 1155.6,461.7 			"/>
		</g>
	</g>
	<g>
		<g>
			<path class="st29" d="M995.3,630.3H992c-31.4,0-56.9,25.4-56.9,56.8c0,0.1,0,0.1,0,0.2c0,13.8,4.8,26.4,12.7,36.4
				c-4.3,7.6-6.7,16.4-6.7,25.7c0,9.8,2.7,18.9,7.3,26.8c-1.3,5.5-1.7,11.3-0.9,17.4c2.9,21.3,20.4,38.1,41.8,40.1
				c27.7,2.5,51-19.2,51-46.4c0-3.8-0.5-7.5-1.3-11.1c4.7-7.8,7.3-17,7.3-26.8c0-9.3-2.4-18.1-6.7-25.7c7.9-10,12.7-22.6,12.7-36.4
				c0-0.1,0-0.1,0-0.2C1052.2,655.7,1026.7,630.3,995.3,630.3z"/>
			<line class="st30" x1="990.6" y1="910.9" x2="993.1" y2="710.5"/>
			<polyline class="st31" points="1030.3,741.8 993.1,780.8 955.8,741.8 			"/>
		</g>
	</g>
	<g>
		<g>
			<path class="st32" d="M110.6,648.2h-3.1c-29.3,0-53.1,23.7-53.2,53.1c0,0.1,0,0.1,0,0.2c0,12.9,4.4,24.7,11.9,34
				c-4,7.1-6.3,15.3-6.3,24c0,9.1,2.5,17.7,6.9,25c-1.2,5.1-1.6,10.6-0.9,16.2c2.7,19.9,19,35.6,39,37.5c25.9,2.4,47.6-18,47.6-43.4
				c0-3.6-0.4-7-1.2-10.4c4.3-7.3,6.9-15.9,6.9-25c0-8.7-2.3-16.9-6.3-24c7.4-9.3,11.9-21.2,11.9-34c0,0,0-0.1,0-0.2
				C163.7,672,139.9,648.2,110.6,648.2z"/>
			<line class="st33" x1="106.2" y1="910.4" x2="108.5" y2="723.1"/>
			<polyline class="st34" points="143.2,752.4 108.5,788.8 73.7,752.4 			"/>
		</g>
	</g>
	<g>
		<g>
			<path class="st32" d="M531.4,647.2h-3.1c-29.3,0-53.1,23.7-53.2,53.1c0,0.1,0,0.1,0,0.2c0,12.9,4.4,24.7,11.9,34
				c-4,7.1-6.3,15.3-6.3,24c0,9.1,2.5,17.7,6.9,25c-1.2,5.1-1.6,10.6-0.9,16.2c2.7,19.9,19,35.6,39,37.5c25.9,2.4,47.6-18,47.6-43.4
				c0-3.6-0.4-7-1.2-10.4c4.3-7.3,6.9-15.9,6.9-25c0-8.7-2.3-16.9-6.3-24c7.4-9.3,11.9-21.2,11.9-34c0,0,0-0.1,0-0.2
				C584.6,671,560.7,647.2,531.4,647.2z"/>
			<line class="st33" x1="527" y1="909.4" x2="529.3" y2="722.1"/>
			<polyline class="st34" points="564.1,751.4 529.3,787.8 494.5,751.4 			"/>
		</g>
	</g>
</g>
</svg>
